<svg xmlns="http://www.w3.org/2000/svg" viewBox="0 0 100 100">
  <defs>
    <linearGradient id="grad1" x1="0%" y1="0%" x2="100%" y2="100%">
      <stop offset="0%" style="stop-color:#3b82f6;stop-opacity:1" />
      <stop offset="100%" style="stop-color:#a855f7;stop-opacity:1" />
    </linearGradient>
  </defs>

  <!-- Background Circle -->
  <circle cx="50" cy="50" r="48" fill="url(#grad1)"/>

  <!-- Letter D -->
  <path d="M 25 30 L 25 70 L 45 70 C 55 70 60 65 60 50 C 60 35 55 30 45 30 Z M 32 37 L 43 37 C 50 37 53 40 53 50 C 53 60 50 63 43 63 L 32 63 Z" fill="white"/>

  <!-- Letter R -->
  <path d="M 68 30 L 68 70 L 75 70 L 75 52 L 82 52 L 88 70 L 95 70 L 88 51 C 91 49 93 46 93 41 C 93 34 89 30 82 30 Z M 75 37 L 81 37 C 85 37 86 38 86 41 C 86 44 85 45 81 45 L 75 45 Z" fill="white"/>

  <!-- Accent Dot (represents AI/Tech) -->
  <circle cx="50" cy="85" r="3" fill="#fbbf24" opacity="0.9"/>
</svg>
